<svg width="219" height="232" viewBox="0 0 219 232" fill="none" xmlns="http://www.w3.org/2000/svg">
<rect width="218.018" height="231.469" rx="8.96732" fill="#131316"/>
<path d="M24.3456 39.9963C23.691 39.9963 23.0991 39.8842 22.5701 39.66C22.05 39.4358 21.6375 39.113 21.3326 38.6915C21.0277 38.27 20.8707 37.7724 20.8618 37.1985H22.8794C22.9063 37.584 23.0408 37.8889 23.283 38.1131C23.534 38.3373 23.8748 38.4494 24.3052 38.4494C24.7446 38.4494 25.0899 38.3463 25.341 38.14C25.592 37.9248 25.7176 37.6468 25.7176 37.3061C25.7176 37.0281 25.6324 36.7994 25.462 36.6201C25.2916 36.4407 25.0764 36.3017 24.8164 36.2031C24.5653 36.0955 24.2156 35.9789 23.7672 35.8534C23.1574 35.674 22.6597 35.4991 22.2741 35.3288C21.8975 35.1494 21.5702 34.8849 21.2922 34.5352C21.0232 34.1765 20.8887 33.7012 20.8887 33.1094C20.8887 32.5534 21.0277 32.0691 21.3057 31.6566C21.5837 31.2442 21.9737 30.9303 22.4759 30.7151C22.9781 30.4909 23.552 30.3788 24.1976 30.3788C25.1661 30.3788 25.9507 30.6164 26.5515 31.0917C27.1613 31.558 27.4976 32.2126 27.5604 33.0556H25.4889C25.471 32.7327 25.332 32.4682 25.0719 32.2619C24.8209 32.0467 24.4846 31.9391 24.0631 31.9391C23.6955 31.9391 23.3995 32.0333 23.1754 32.2216C22.9601 32.4099 22.8525 32.6834 22.8525 33.0421C22.8525 33.2932 22.9332 33.5039 23.0946 33.6743C23.265 33.8357 23.4713 33.9702 23.7134 34.0778C23.9645 34.1765 24.3142 34.293 24.7626 34.4276C25.3723 34.6069 25.87 34.7862 26.2556 34.9656C26.6412 35.1449 26.973 35.414 27.251 35.7726C27.529 36.1313 27.668 36.6021 27.668 37.185C27.668 37.6872 27.538 38.1535 27.2779 38.5839C27.0178 39.0143 26.6367 39.3596 26.1346 39.6196C25.6324 39.8707 25.0361 39.9963 24.3456 39.9963ZM28.8164 36.1493C28.8164 35.396 28.9643 34.728 29.2602 34.1451C29.5651 33.5622 29.9731 33.1138 30.4843 32.8C31.0044 32.4861 31.5828 32.3292 32.2195 32.3292C32.7754 32.3292 33.2597 32.4413 33.6722 32.6655C34.0936 32.8897 34.4299 33.1721 34.681 33.5129V32.4503H36.5776V39.9021H34.681V38.8126C34.4389 39.1623 34.1026 39.4537 33.6722 39.6869C33.2507 39.9111 32.762 40.0232 32.206 40.0232C31.5783 40.0232 31.0044 39.8617 30.4843 39.5389C29.9731 39.2161 29.5651 38.7632 29.2602 38.1804C28.9643 37.5885 28.8164 36.9115 28.8164 36.1493ZM34.681 36.1762C34.681 35.7188 34.5913 35.3288 34.412 35.0059C34.2326 34.6742 33.9905 34.4231 33.6856 34.2527C33.3807 34.0733 33.0534 33.9837 32.7037 33.9837C32.354 33.9837 32.0311 34.0689 31.7352 34.2392C31.4393 34.4096 31.1972 34.6607 31.0089 34.9925C30.8295 35.3153 30.7398 35.7009 30.7398 36.1493C30.7398 36.5976 30.8295 36.9922 31.0089 37.333C31.1972 37.6648 31.4393 37.9203 31.7352 38.0997C32.0401 38.279 32.3629 38.3687 32.7037 38.3687C33.0534 38.3687 33.3807 38.2835 33.6856 38.1131C33.9905 37.9338 34.2326 37.6827 34.412 37.3599C34.5913 37.0281 34.681 36.6335 34.681 36.1762ZM40.2999 29.9484V39.9021H38.4168V29.9484H40.2999ZM49.0877 36.0148C49.0877 36.2838 49.0698 36.5259 49.0339 36.7411H43.5863C43.6311 37.2792 43.8194 37.7006 44.1512 38.0055C44.483 38.3104 44.891 38.4628 45.3752 38.4628C46.0747 38.4628 46.5724 38.1624 46.8683 37.5616H48.8994C48.6842 38.279 48.2717 38.8709 47.6619 39.3372C47.0521 39.7945 46.3034 40.0232 45.4156 40.0232C44.6982 40.0232 44.0526 39.8662 43.4787 39.5524C42.9137 39.2296 42.4698 38.7767 42.147 38.1938C41.8332 37.6109 41.6762 36.9384 41.6762 36.1762C41.6762 35.405 41.8332 34.728 42.147 34.1451C42.4609 33.5622 42.9003 33.1138 43.4652 32.8C44.0301 32.4861 44.6803 32.3292 45.4156 32.3292C46.124 32.3292 46.7562 32.4816 47.3122 32.7865C47.8771 33.0914 48.312 33.5263 48.6169 34.0913C48.9308 34.6472 49.0877 35.2884 49.0877 36.0148ZM47.1373 35.4767C47.1284 34.9925 46.9535 34.6069 46.6127 34.3199C46.272 34.024 45.855 33.8761 45.3618 33.8761C44.8955 33.8761 44.5009 34.0195 44.1781 34.3065C43.8643 34.5845 43.6715 34.9746 43.5997 35.4767H47.1373ZM53.3139 40.0232C52.7041 40.0232 52.1571 39.9156 51.6728 39.7003C51.1886 39.4762 50.803 39.1757 50.516 38.7991C50.2381 38.4225 50.0856 38.0055 50.0587 37.5482H51.9553C51.9912 37.8351 52.1302 38.0728 52.3723 38.2611C52.6234 38.4494 52.9327 38.5436 53.3004 38.5436C53.6591 38.5436 53.9371 38.4718 54.1344 38.3283C54.3406 38.1849 54.4437 38.001 54.4437 37.7768C54.4437 37.5347 54.3182 37.3554 54.0671 37.2388C53.825 37.1133 53.4349 36.9788 52.8969 36.8353C52.3409 36.7008 51.8836 36.5618 51.5249 36.4183C51.1751 36.2748 50.8703 36.0551 50.6102 35.7592C50.3591 35.4633 50.2336 35.0642 50.2336 34.5621C50.2336 34.1496 50.3502 33.7729 50.5833 33.4322C50.8254 33.0914 51.1662 32.8224 51.6056 32.6251C52.0539 32.4278 52.5785 32.3292 53.1793 32.3292C54.0671 32.3292 54.7755 32.5534 55.3046 33.0017C55.8337 33.4411 56.1251 34.0375 56.1789 34.7907H54.3765C54.3496 34.4948 54.224 34.2617 53.9999 34.0913C53.7846 33.9119 53.4932 33.8223 53.1255 33.8223C52.7848 33.8223 52.5202 33.885 52.3319 34.0106C52.1526 34.1361 52.0629 34.311 52.0629 34.5352C52.0629 34.7862 52.1885 34.979 52.4395 35.1136C52.6906 35.2391 53.0807 35.3691 53.6098 35.5036C54.1478 35.6381 54.5917 35.7771 54.9414 35.9206C55.2911 36.0641 55.5915 36.2883 55.8426 36.5932C56.1027 36.8891 56.2372 37.2836 56.2462 37.7768C56.2462 38.2073 56.1251 38.5929 55.883 38.9336C55.6498 39.2744 55.3091 39.5434 54.8607 39.7407C54.4213 39.929 53.9057 40.0232 53.3139 40.0232Z" fill="white"/>
<path d="M162.211 34.0621C162.211 34.3872 162.099 34.6581 161.875 34.8748C161.655 35.0878 161.316 35.1943 160.861 35.1943H160.11V36.8252H159.6V32.9188H160.861C161.301 32.9188 161.636 33.0253 161.864 33.2383C162.095 33.4512 162.211 33.7259 162.211 34.0621ZM160.861 34.7739C161.145 34.7739 161.354 34.7123 161.488 34.589C161.623 34.4657 161.69 34.2901 161.69 34.0621C161.69 33.5801 161.414 33.3391 160.861 33.3391H160.11V34.7739H160.861ZM162.655 35.2783C162.655 34.9645 162.718 34.6899 162.845 34.4545C162.972 34.2153 163.146 34.0304 163.366 33.8996C163.591 33.7688 163.839 33.7034 164.112 33.7034C164.381 33.7034 164.614 33.7614 164.812 33.8772C165.01 33.993 165.158 34.1387 165.255 34.3143V33.7539H165.771V36.8252H165.255V36.2535C165.154 36.4329 165.003 36.5823 164.801 36.7019C164.603 36.8177 164.371 36.8756 164.106 36.8756C163.833 36.8756 163.587 36.8084 163.366 36.6739C163.146 36.5394 162.972 36.3507 162.845 36.1078C162.718 35.8649 162.655 35.5885 162.655 35.2783ZM165.255 35.2839C165.255 35.0523 165.208 34.8505 165.115 34.6786C165.022 34.5068 164.895 34.376 164.734 34.2863C164.577 34.1929 164.403 34.1462 164.213 34.1462C164.022 34.1462 163.848 34.191 163.691 34.2807C163.535 34.3704 163.409 34.5012 163.316 34.673C163.223 34.8449 163.176 35.0467 163.176 35.2783C163.176 35.5137 163.223 35.7192 163.316 35.8948C163.409 36.0667 163.535 36.1994 163.691 36.2928C163.848 36.3824 164.022 36.4273 164.213 36.4273C164.403 36.4273 164.577 36.3824 164.734 36.2928C164.895 36.1994 165.022 36.0667 165.115 35.8948C165.208 35.7192 165.255 35.5156 165.255 35.2839ZM167.72 36.8756C167.485 36.8756 167.273 36.8364 167.087 36.7579C166.9 36.6757 166.752 36.5636 166.644 36.4217C166.535 36.2759 166.476 36.1097 166.464 35.9229H166.991C167.006 36.0761 167.077 36.2012 167.204 36.2984C167.335 36.3955 167.505 36.4441 167.714 36.4441C167.909 36.4441 168.062 36.4011 168.174 36.3152C168.286 36.2292 168.342 36.1209 168.342 35.9901C168.342 35.8556 168.282 35.7566 168.163 35.6931C168.043 35.6258 167.858 35.5604 167.608 35.4969C167.38 35.4371 167.193 35.3773 167.047 35.3176C166.905 35.254 166.782 35.1625 166.677 35.0429C166.577 34.9196 166.526 34.759 166.526 34.5609C166.526 34.404 166.573 34.2602 166.666 34.1294C166.76 33.9986 166.892 33.8959 167.064 33.8211C167.236 33.7427 167.432 33.7034 167.653 33.7034C167.993 33.7034 168.267 33.7894 168.477 33.9613C168.686 34.1331 168.798 34.3685 168.813 34.6674H168.303C168.292 34.5068 168.226 34.3779 168.107 34.2807C167.991 34.1836 167.834 34.135 167.636 34.135C167.453 34.135 167.307 34.1742 167.199 34.2527C167.09 34.3312 167.036 34.4339 167.036 34.5609C167.036 34.6618 167.068 34.7459 167.131 34.8132C167.199 34.8767 167.281 34.929 167.378 34.9701C167.479 35.0074 167.617 35.0504 167.793 35.099C168.013 35.1588 168.193 35.2186 168.331 35.2783C168.469 35.3344 168.587 35.4203 168.684 35.5361C168.785 35.652 168.837 35.8033 168.841 35.9901C168.841 36.1583 168.794 36.3096 168.701 36.4441C168.607 36.5786 168.475 36.6851 168.303 36.7635C168.135 36.8383 167.94 36.8756 167.72 36.8756ZM170.183 34.1742V35.9845C170.183 36.134 170.215 36.2405 170.278 36.304C170.342 36.3638 170.452 36.3936 170.609 36.3936H170.984V36.8252H170.525C170.241 36.8252 170.028 36.7598 169.886 36.629C169.744 36.4983 169.673 36.2834 169.673 35.9845V34.1742H169.275V33.7539H169.673V32.9805H170.183V33.7539H170.984V34.1742H170.183ZM175.506 33.171L173.948 36.8252H173.433L175.013 33.2215H172.85V32.7843H175.506V33.171ZM177.46 35.2783C177.46 34.9645 177.523 34.6899 177.65 34.4545C177.777 34.2153 177.951 34.0304 178.171 33.8996C178.396 33.7688 178.646 33.7034 178.922 33.7034C179.162 33.7034 179.384 33.7595 179.589 33.8716C179.795 33.9799 179.952 34.1238 180.06 34.3031V32.6778H180.576V36.8252H180.06V36.2479C179.959 36.431 179.81 36.5823 179.612 36.7019C179.414 36.8177 179.182 36.8756 178.917 36.8756C178.644 36.8756 178.396 36.8084 178.171 36.6739C177.951 36.5394 177.777 36.3507 177.65 36.1078C177.523 35.8649 177.46 35.5885 177.46 35.2783ZM180.06 35.2839C180.06 35.0523 180.013 34.8505 179.92 34.6786C179.827 34.5068 179.7 34.376 179.539 34.2863C179.382 34.1929 179.208 34.1462 179.018 34.1462C178.827 34.1462 178.653 34.191 178.496 34.2807C178.34 34.3704 178.214 34.5012 178.121 34.673C178.028 34.8449 177.981 35.0467 177.981 35.2783C177.981 35.5137 178.028 35.7192 178.121 35.8948C178.214 36.0667 178.34 36.1994 178.496 36.2928C178.653 36.3824 178.827 36.4273 179.018 36.4273C179.208 36.4273 179.382 36.3824 179.539 36.2928C179.7 36.1994 179.827 36.0667 179.92 35.8948C180.013 35.7192 180.06 35.5156 180.06 35.2839ZM181.247 35.2783C181.247 34.9645 181.311 34.6899 181.438 34.4545C181.565 34.2153 181.738 34.0304 181.959 33.8996C182.183 33.7688 182.432 33.7034 182.704 33.7034C182.973 33.7034 183.207 33.7614 183.405 33.8772C183.603 33.993 183.75 34.1387 183.848 34.3143V33.7539H184.363V36.8252H183.848V36.2535C183.747 36.4329 183.595 36.5823 183.394 36.7019C183.196 36.8177 182.964 36.8756 182.699 36.8756C182.426 36.8756 182.179 36.8084 181.959 36.6739C181.738 36.5394 181.565 36.3507 181.438 36.1078C181.311 35.8649 181.247 35.5885 181.247 35.2783ZM183.848 35.2839C183.848 35.0523 183.801 34.8505 183.708 34.6786C183.614 34.5068 183.487 34.376 183.326 34.2863C183.169 34.1929 182.996 34.1462 182.805 34.1462C182.615 34.1462 182.441 34.191 182.284 34.2807C182.127 34.3704 182.002 34.5012 181.908 34.673C181.815 34.8449 181.768 35.0467 181.768 35.2783C181.768 35.5137 181.815 35.7192 181.908 35.8948C182.002 36.0667 182.127 36.1994 182.284 36.2928C182.441 36.3824 182.615 36.4273 182.805 36.4273C182.996 36.4273 183.169 36.3824 183.326 36.2928C183.487 36.1994 183.614 36.0667 183.708 35.8948C183.801 35.7192 183.848 35.5156 183.848 35.2839ZM187.87 33.7539L186.021 38.2712H185.494L186.099 36.7916L184.861 33.7539H185.427L186.391 36.2423L187.344 33.7539H187.87ZM189.47 36.8756C189.235 36.8756 189.024 36.8364 188.837 36.7579C188.65 36.6757 188.503 36.5636 188.394 36.4217C188.286 36.2759 188.226 36.1097 188.215 35.9229H188.742C188.757 36.0761 188.828 36.2012 188.955 36.2984C189.086 36.3955 189.256 36.4441 189.465 36.4441C189.659 36.4441 189.812 36.4011 189.924 36.3152C190.037 36.2292 190.093 36.1209 190.093 35.9901C190.093 35.8556 190.033 35.7566 189.913 35.6931C189.794 35.6258 189.609 35.5604 189.358 35.4969C189.13 35.4371 188.944 35.3773 188.798 35.3176C188.656 35.254 188.533 35.1625 188.428 35.0429C188.327 34.9196 188.277 34.759 188.277 34.5609C188.277 34.404 188.323 34.2602 188.417 34.1294C188.51 33.9986 188.643 33.8959 188.815 33.8211C188.987 33.7427 189.183 33.7034 189.403 33.7034C189.743 33.7034 190.018 33.7894 190.227 33.9613C190.436 34.1331 190.548 34.3685 190.563 34.6674H190.053C190.042 34.5068 189.977 34.3779 189.857 34.2807C189.741 34.1836 189.584 34.135 189.386 34.135C189.203 34.135 189.058 34.1742 188.949 34.2527C188.841 34.3312 188.787 34.4339 188.787 34.5609C188.787 34.6618 188.818 34.7459 188.882 34.8132C188.949 34.8767 189.031 34.929 189.129 34.9701C189.229 35.0074 189.368 35.0504 189.543 35.099C189.764 35.1588 189.943 35.2186 190.081 35.2783C190.22 35.3344 190.337 35.4203 190.434 35.5361C190.535 35.652 190.588 35.8033 190.591 35.9901C190.591 36.1583 190.545 36.3096 190.451 36.4441C190.358 36.5786 190.225 36.6851 190.053 36.7635C189.885 36.8383 189.691 36.8756 189.47 36.8756Z" fill="white"/>
<path d="M194.477 34.188L196.158 35.8694L197.84 34.188" stroke="white" stroke-width="0.560458" stroke-linejoin="round"/>
<line x1="20.456" y1="60.5295" x2="20.456" y2="207.369" stroke="#494949" stroke-width="0.560458"/>
<line x1="64.7177" y1="60.5295" x2="64.7178" y2="207.369" stroke="#494949" stroke-width="0.560458"/>
<line x1="109.597" y1="60.5295" x2="109.597" y2="207.369" stroke="white" stroke-width="0.560458"/>
<line x1="153.858" y1="60.5295" x2="153.858" y2="207.369" stroke="#494949" stroke-width="0.560458"/>
<line x1="198.12" y1="60.5295" x2="198.12" y2="207.369" stroke="#494949" stroke-width="0.560458"/>
<path d="M10.0859 154.088C119.099 222.829 153.429 119.377 197.839 119.377" stroke="#F6FEE0" stroke-width="1.68137" stroke-linecap="round" stroke-linejoin="round"/>
<path d="M10.0859 184.391C71.0558 184.391 84.9815 91.915 197.839 91.915" stroke="#DAF4FE" stroke-width="1.68137" stroke-linecap="round" stroke-linejoin="round"/>
<rect x="84.0625" y="75.6619" width="49.8807" height="25.781" rx="2.24183" fill="white"/>
<path d="M90.4659 82.0204V84.3295C90.4659 84.5865 90.3867 84.7928 90.2282 84.9482C90.0698 85.1007 89.8606 85.1769 89.6005 85.1769C89.3375 85.1769 89.1268 85.0992 88.9683 84.9437C88.8099 84.7853 88.7307 84.5701 88.7307 84.2981H89.1387C89.1417 84.4505 89.1806 84.5746 89.2553 84.6702C89.333 84.7659 89.4481 84.8137 89.6005 84.8137C89.753 84.8137 89.8666 84.7689 89.9413 84.6792C90.016 84.5865 90.0534 84.47 90.0534 84.3295V82.0204H90.4659ZM91.1172 83.908C91.1172 83.6569 91.1681 83.4372 91.2697 83.2489C91.3713 83.0576 91.5103 82.9097 91.6867 82.805C91.866 82.7004 92.0648 82.6481 92.283 82.6481C92.4982 82.6481 92.685 82.6944 92.8434 82.7871C93.0019 82.8798 93.1199 82.9963 93.1977 83.1368V82.6885H93.6102V85.1455H93.1977V84.6882C93.117 84.8317 92.9959 84.9512 92.8345 85.0469C92.6761 85.1395 92.4907 85.1859 92.2785 85.1859C92.0603 85.1859 91.863 85.1321 91.6867 85.0244C91.5103 84.9168 91.3713 84.7659 91.2697 84.5716C91.1681 84.3773 91.1172 84.1561 91.1172 83.908ZM93.1977 83.9125C93.1977 83.7272 93.1603 83.5658 93.0856 83.4283C93.0108 83.2908 92.9092 83.1861 92.7807 83.1144C92.6551 83.0397 92.5161 83.0023 92.3637 83.0023C92.2113 83.0023 92.0723 83.0382 91.9467 83.1099C91.8212 83.1817 91.721 83.2863 91.6463 83.4238C91.5716 83.5613 91.5342 83.7227 91.5342 83.908C91.5342 84.0963 91.5716 84.2607 91.6463 84.4012C91.721 84.5387 91.8212 84.6448 91.9467 84.7196C92.0723 84.7913 92.2113 84.8272 92.3637 84.8272C92.5161 84.8272 92.6551 84.7913 92.7807 84.7196C92.9092 84.6448 93.0108 84.5387 93.0856 84.4012C93.1603 84.2607 93.1977 84.0978 93.1977 83.9125ZM95.4968 82.6436C95.7957 82.6436 96.0378 82.7348 96.2231 82.9171C96.4085 83.0965 96.5011 83.3565 96.5011 83.6973V85.1455H96.0976V83.7556C96.0976 83.5105 96.0363 83.3236 95.9138 83.1951C95.7912 83.0636 95.6238 82.9978 95.4116 82.9978C95.1964 82.9978 95.0245 83.0651 94.896 83.1996C94.7704 83.3341 94.7077 83.5299 94.7077 83.787V85.1455H94.2997V82.6885H94.7077V83.0382C94.7884 82.9126 94.8975 82.8155 95.035 82.7467C95.1755 82.678 95.3294 82.6436 95.4968 82.6436ZM98.1881 82.276V81.9038H99.031V85.1455H98.6185V82.276H98.1881ZM101.539 82.675C101.473 82.3432 101.268 82.1773 100.925 82.1773C100.659 82.1773 100.46 82.2804 100.328 82.4867C100.197 82.69 100.132 83.0262 100.135 83.4955C100.204 83.3401 100.318 83.219 100.476 83.1323C100.638 83.0427 100.817 82.9978 101.014 82.9978C101.322 82.9978 101.567 83.0935 101.75 83.2848C101.935 83.4761 102.028 83.7406 102.028 84.0784C102.028 84.2817 101.987 84.464 101.906 84.6254C101.829 84.7868 101.709 84.9153 101.548 85.011C101.389 85.1066 101.197 85.1545 100.969 85.1545C100.662 85.1545 100.421 85.0857 100.248 84.9482C100.074 84.8107 99.9531 84.6209 99.8843 84.3788C99.8156 84.1367 99.7812 83.8378 99.7812 83.4821C99.7812 82.3851 100.164 81.8366 100.929 81.8366C101.222 81.8366 101.452 81.9158 101.62 82.0742C101.787 82.2326 101.886 82.4329 101.915 82.675H101.539ZM100.929 83.3431C100.8 83.3431 100.679 83.37 100.566 83.4238C100.452 83.4746 100.36 83.5538 100.288 83.6614C100.219 83.766 100.185 83.8946 100.185 84.047C100.185 84.2742 100.251 84.4595 100.382 84.603C100.514 84.7435 100.702 84.8137 100.947 84.8137C101.156 84.8137 101.322 84.7495 101.445 84.6209C101.57 84.4894 101.633 84.313 101.633 84.0918C101.633 83.8587 101.573 83.6764 101.454 83.5448C101.334 83.4103 101.159 83.3431 100.929 83.3431Z" fill="#131316"/>
<path d="M91.5005 93.482C91.5005 93.6614 91.4556 93.8332 91.366 93.9976C91.2763 94.1583 91.1437 94.2928 90.9681 94.4012C90.7962 94.5095 90.5888 94.5712 90.3459 94.5861V95.0401H90.0433V94.5861C89.7033 94.5562 89.4268 94.4479 89.2138 94.2611C89.0008 94.0705 88.8925 93.8295 88.8888 93.5381H89.4324C89.4473 93.695 89.5053 93.8314 89.6061 93.9472C89.7108 94.063 89.8565 94.1359 90.0433 94.1658V92.7646C89.793 92.7011 89.5912 92.6357 89.438 92.5685C89.2848 92.5012 89.154 92.3966 89.0457 92.2546C88.9373 92.1126 88.8831 91.9221 88.8831 91.6829C88.8831 91.3803 88.9878 91.13 89.197 90.9319C89.41 90.7339 89.6921 90.6237 90.0433 90.6013V90.1361H90.3459V90.6013C90.6635 90.6274 90.9195 90.7302 91.1138 90.9095C91.3081 91.0851 91.4202 91.3149 91.45 91.5989H90.9064C90.8877 91.4681 90.8298 91.3504 90.7327 91.2458C90.6355 91.1374 90.5066 91.0664 90.3459 91.0328V92.4003C90.5925 92.4639 90.7924 92.5292 90.9456 92.5965C91.1026 92.66 91.2333 92.7628 91.338 92.9047C91.4463 93.0467 91.5005 93.2392 91.5005 93.482ZM89.4044 91.6549C89.4044 91.838 89.4586 91.9781 89.5669 92.0753C89.6753 92.1724 89.8341 92.2527 90.0433 92.3163V91.0216C89.849 91.0403 89.6939 91.1038 89.5781 91.2122C89.4623 91.3168 89.4044 91.4644 89.4044 91.6549ZM90.3459 94.1714C90.5477 94.149 90.7046 94.0761 90.8167 93.9528C90.9326 93.8295 90.9905 93.6819 90.9905 93.51C90.9905 93.327 90.9344 93.1868 90.8223 93.0897C90.7102 92.9888 90.5514 92.9085 90.3459 92.8487V94.1714ZM92.2463 90.9656V90.5004H93.2999V94.5525H92.7843V90.9656H92.2463ZM94.1144 94.1434C94.5889 93.7622 94.9607 93.4503 95.2297 93.2074C95.4987 92.9608 95.7247 92.7048 95.9078 92.4396C96.0946 92.1705 96.1881 91.9071 96.1881 91.6493C96.1881 91.4065 96.1283 91.2159 96.0087 91.0777C95.8929 90.9357 95.7042 90.8647 95.4426 90.8647C95.1886 90.8647 94.9905 90.945 94.8486 91.1057C94.7103 91.2626 94.6356 91.4737 94.6244 91.739H94.1312C94.1461 91.3205 94.2732 90.9973 94.5123 90.7694C94.7514 90.5415 95.0597 90.4275 95.437 90.4275C95.8219 90.4275 96.1264 90.534 96.3506 90.747C96.5785 90.96 96.6925 91.2533 96.6925 91.6269C96.6925 91.937 96.5991 92.2397 96.4122 92.5348C96.2292 92.8263 96.0199 93.0841 95.7845 93.3083C95.5491 93.5287 95.2484 93.7865 94.8822 94.0817H96.8102V94.5077H94.1144V94.1434ZM97.3997 92.4844C97.3997 91.8417 97.5044 91.3411 97.7136 90.9824C97.9228 90.6199 98.289 90.4387 98.8121 90.4387C99.3314 90.4387 99.6957 90.6199 99.905 90.9824C100.114 91.3411 100.219 91.8417 100.219 92.4844C100.219 93.1383 100.114 93.6464 99.905 94.0088C99.6957 94.3713 99.3314 94.5525 98.8121 94.5525C98.289 94.5525 97.9228 94.3713 97.7136 94.0088C97.5044 93.6464 97.3997 93.1383 97.3997 92.4844ZM99.7144 92.4844C99.7144 92.1593 99.692 91.8847 99.6472 91.6605C99.6061 91.4326 99.5183 91.2495 99.3838 91.1113C99.253 90.973 99.0624 90.9039 98.8121 90.9039C98.558 90.9039 98.3637 90.973 98.2292 91.1113C98.0984 91.2495 98.0106 91.4326 97.9658 91.6605C97.9247 91.8847 97.9042 92.1593 97.9042 92.4844C97.9042 92.8207 97.9247 93.1028 97.9658 93.3307C98.0106 93.5586 98.0984 93.7417 98.2292 93.8799C98.3637 94.0182 98.558 94.0873 98.8121 94.0873C99.0624 94.0873 99.253 94.0182 99.3838 93.8799C99.5183 93.7417 99.6061 93.5586 99.6472 93.3307C99.692 93.1028 99.7144 92.8207 99.7144 92.4844ZM104.403 89.273L102.867 95.5053H102.363L103.893 89.273H104.403ZM106.562 91.5204C106.588 91.1767 106.72 90.9076 106.96 90.7134C107.199 90.5191 107.509 90.4219 107.89 90.4219C108.144 90.4219 108.363 90.4686 108.546 90.562C108.732 90.6517 108.873 90.775 108.966 90.9319C109.063 91.0889 109.112 91.2663 109.112 91.4644C109.112 91.696 109.044 91.8959 108.91 92.0641C108.779 92.2322 108.607 92.3406 108.394 92.3891V92.4171C108.637 92.4769 108.83 92.5946 108.972 92.7702C109.114 92.9458 109.185 93.1756 109.185 93.4596C109.185 93.6726 109.136 93.865 109.039 94.0369C108.942 94.205 108.796 94.3376 108.602 94.4348C108.407 94.5319 108.174 94.5805 107.901 94.5805C107.505 94.5805 107.18 94.4778 106.926 94.2723C106.672 94.063 106.53 93.7678 106.5 93.3867H106.993C107.019 93.6109 107.111 93.794 107.268 93.936C107.425 94.078 107.634 94.149 107.896 94.149C108.157 94.149 108.355 94.0817 108.49 93.9472C108.628 93.8089 108.697 93.6315 108.697 93.4148C108.697 93.1345 108.604 92.9328 108.417 92.8095C108.23 92.6862 107.948 92.6245 107.57 92.6245H107.442V92.1986H107.576C107.92 92.1948 108.179 92.1388 108.355 92.0304C108.531 91.9183 108.619 91.7465 108.619 91.5148C108.619 91.3168 108.553 91.158 108.422 91.0384C108.295 90.9189 108.112 90.8591 107.873 90.8591C107.641 90.8591 107.455 90.9189 107.313 91.0384C107.171 91.158 107.087 91.3187 107.06 91.5204H106.562ZM112.69 94.5917C112.432 94.5917 112.201 94.5469 111.995 94.4572C111.793 94.3638 111.635 94.2368 111.519 94.0761C111.403 93.9117 111.343 93.723 111.339 93.51H111.883C111.902 93.6931 111.976 93.8482 112.107 93.9752C112.242 94.0985 112.436 94.1602 112.69 94.1602C112.933 94.1602 113.123 94.1004 113.262 93.9808C113.404 93.8575 113.475 93.7006 113.475 93.51C113.475 93.3606 113.434 93.2392 113.351 93.1457C113.269 93.0523 113.166 92.9813 113.043 92.9328C112.92 92.8842 112.754 92.8319 112.544 92.7758C112.287 92.7086 112.079 92.6413 111.922 92.5741C111.769 92.5068 111.636 92.4022 111.524 92.2602C111.416 92.1145 111.362 91.9202 111.362 91.6773C111.362 91.4644 111.416 91.2757 111.524 91.1113C111.633 90.9469 111.784 90.8198 111.978 90.7302C112.176 90.6405 112.402 90.5957 112.656 90.5957C113.023 90.5957 113.322 90.6872 113.553 90.8703C113.789 91.0534 113.921 91.2962 113.951 91.5989H113.391C113.372 91.4494 113.293 91.3187 113.155 91.2066C113.017 91.0907 112.834 91.0328 112.606 91.0328C112.393 91.0328 112.219 91.0889 112.085 91.201C111.95 91.3093 111.883 91.4625 111.883 91.6605C111.883 91.8025 111.922 91.9183 112.001 92.008C112.083 92.0977 112.182 92.1668 112.298 92.2154C112.417 92.2602 112.584 92.3125 112.797 92.3723C113.054 92.4433 113.262 92.5143 113.419 92.5853C113.576 92.6525 113.71 92.759 113.822 92.9047C113.934 93.0467 113.99 93.241 113.99 93.4876C113.99 93.6782 113.94 93.8575 113.839 94.0257C113.738 94.1938 113.589 94.3302 113.391 94.4348C113.193 94.5394 112.959 94.5917 112.69 94.5917ZM114.55 93.0056C114.55 92.6918 114.614 92.4171 114.741 92.1818C114.868 91.9426 115.042 91.7577 115.262 91.6269C115.486 91.4961 115.735 91.4307 116.007 91.4307C116.277 91.4307 116.51 91.4887 116.708 91.6045C116.906 91.7203 117.054 91.866 117.151 92.0416V91.4812H117.666V94.5525H117.151V93.9808C117.05 94.1602 116.899 94.3096 116.697 94.4292C116.499 94.545 116.267 94.6029 116.002 94.6029C115.729 94.6029 115.483 94.5357 115.262 94.4012C115.042 94.2667 114.868 94.078 114.741 93.8351C114.614 93.5922 114.55 93.3157 114.55 93.0056ZM117.151 93.0112C117.151 92.7796 117.104 92.5778 117.011 92.4059C116.917 92.2341 116.79 92.1033 116.63 92.0136C116.473 91.9202 116.299 91.8735 116.108 91.8735C115.918 91.8735 115.744 91.9183 115.587 92.008C115.43 92.0977 115.305 92.2285 115.212 92.4003C115.118 92.5722 115.072 92.774 115.072 93.0056C115.072 93.241 115.118 93.4465 115.212 93.6221C115.305 93.794 115.43 93.9266 115.587 94.0201C115.744 94.1097 115.918 94.1546 116.108 94.1546C116.299 94.1546 116.473 94.1097 116.63 94.0201C116.79 93.9266 116.917 93.794 117.011 93.6221C117.104 93.4465 117.151 93.2429 117.151 93.0112ZM119.038 90.4051V94.5525H118.528V90.4051H119.038ZM122.71 92.8991C122.71 92.9963 122.704 93.099 122.693 93.2074H120.238C120.257 93.51 120.36 93.7473 120.547 93.9192C120.737 94.0873 120.967 94.1714 121.236 94.1714C121.456 94.1714 121.639 94.1209 121.785 94.0201C121.935 93.9154 122.039 93.7772 122.099 93.6053H122.648C122.566 93.9005 122.402 94.1415 122.155 94.3283C121.908 94.5114 121.602 94.6029 121.236 94.6029C120.944 94.6029 120.683 94.5375 120.451 94.4068C120.223 94.276 120.044 94.091 119.913 93.8519C119.782 93.6091 119.717 93.3288 119.717 93.0112C119.717 92.6936 119.781 92.4153 119.908 92.1762C120.035 91.937 120.212 91.7539 120.44 91.6269C120.672 91.4961 120.937 91.4307 121.236 91.4307C121.527 91.4307 121.785 91.4943 122.009 91.6213C122.233 91.7483 122.405 91.9239 122.525 92.1481C122.648 92.3686 122.71 92.6189 122.71 92.8991ZM122.183 92.7927C122.183 92.5984 122.14 92.4321 122.054 92.2938C121.968 92.1519 121.851 92.0454 121.701 91.9744C121.555 91.8997 121.393 91.8623 121.213 91.8623C120.956 91.8623 120.735 91.9445 120.552 92.1089C120.373 92.2733 120.27 92.5012 120.244 92.7927H122.183ZM124.47 94.6029C124.235 94.6029 124.024 94.5637 123.837 94.4852C123.65 94.403 123.503 94.2909 123.394 94.149C123.286 94.0032 123.226 93.837 123.215 93.6502H123.742C123.757 93.8033 123.828 93.9285 123.955 94.0257C124.086 94.1228 124.256 94.1714 124.465 94.1714C124.659 94.1714 124.812 94.1284 124.924 94.0425C125.036 93.9565 125.092 93.8482 125.092 93.7174C125.092 93.5829 125.033 93.4839 124.913 93.4204C124.794 93.3531 124.609 93.2877 124.358 93.2242C124.13 93.1644 123.944 93.1046 123.798 93.0449C123.656 92.9813 123.533 92.8898 123.428 92.7702C123.327 92.6469 123.277 92.4863 123.277 92.2882C123.277 92.1313 123.323 91.9875 123.417 91.8567C123.51 91.7259 123.643 91.6232 123.815 91.5484C123.987 91.47 124.183 91.4307 124.403 91.4307C124.743 91.4307 125.018 91.5167 125.227 91.6886C125.436 91.8604 125.548 92.0958 125.563 92.3947H125.053C125.042 92.2341 124.977 92.1052 124.857 92.008C124.741 91.9109 124.584 91.8623 124.386 91.8623C124.203 91.8623 124.057 91.9015 123.949 91.98C123.841 92.0585 123.787 92.1612 123.787 92.2882C123.787 92.3891 123.818 92.4732 123.882 92.5404C123.949 92.604 124.031 92.6563 124.128 92.6974C124.229 92.7347 124.368 92.7777 124.543 92.8263C124.764 92.8861 124.943 92.9458 125.081 93.0056C125.22 93.0617 125.337 93.1476 125.434 93.2634C125.535 93.3793 125.588 93.5306 125.591 93.7174C125.591 93.8855 125.545 94.0369 125.451 94.1714C125.358 94.3059 125.225 94.4124 125.053 94.4908C124.885 94.5656 124.691 94.6029 124.47 94.6029Z" fill="#131316"/>
<path d="M103.68 101.443H114.889L110.869 105.462C109.994 106.338 108.575 106.338 107.699 105.462L103.68 101.443Z" fill="white"/>
<circle cx="109.288" cy="117.696" r="4.48366" fill="white"/>
<circle cx="109.287" cy="117.696" r="1.68137" fill="#131316"/>
</svg>
